HIERARCHY
ROOT Hips
{
	OFFSET 0.000000 0.000000 0.000000
	CHANNELS 6 Xposition Yposition Zposition Xrotation Yrotation Zrotation
	JOINT Spine1
	{
		OFFSET 0.000000 9.372198 0.000008
		CHANNELS 6 Xposition Yposition Zposition Xrotation Yrotation Zrotation
		JOINT Neck
		{
			OFFSET 0.000000 7.471846 0.000007
			CHANNELS 6 Xposition Yposition Zposition Xrotation Yrotation Zrotation
			JOINT Head
			{
				OFFSET 0.000000 4.750920 0.613024
				CHANNELS 6 Xposition Yposition Zposition Xrotation Yrotation Zrotation
				End Site
				{
					OFFSET 0.000000 6.130202 0.000001
				}
			}
		}
		JOINT LeftShoulder
		{
			OFFSET 1.234464 6.033117 -0.162038
			CHANNELS 6 Xposition Yposition Zposition Xrotation Yrotation Zrotation
			JOINT LeftArm
			{
				OFFSET 4.404915 0.000000 0.000000
				CHANNELS 6 Xposition Yposition Zposition Xrotation Yrotation Zrotation
				JOINT LeftForeArm
				{
					OFFSET 8.637336 0.000000 0.000000
					CHANNELS 6 Xposition Yposition Zposition Xrotation Yrotation Zrotation
					JOINT LeftHand
					{
						OFFSET 8.027266 0.000000 0.000000
						CHANNELS 6 Xposition Yposition Zposition Xrotation Yrotation Zrotation
						End Site
						{
							OFFSET 4.597650 0.000000 0.000000
						}
					}
				}
			}
		}
		JOINT RightShoulder
		{
			OFFSET -1.217436 6.033117 -0.162038
			CHANNELS 6 Xposition Yposition Zposition Xrotation Yrotation Zrotation
			JOINT RightArm
			{
				OFFSET -4.404915 0.000000 0.000000
				CHANNELS 6 Xposition Yposition Zposition Xrotation Yrotation Zrotation
				JOINT RightForeArm
				{
					OFFSET -8.637334 0.000000 0.000000
					CHANNELS 6 Xposition Yposition Zposition Xrotation Yrotation Zrotation
					JOINT RightHand
					{
						OFFSET -8.027271 0.000000 0.000000
						CHANNELS 6 Xposition Yposition Zposition Xrotation Yrotation Zrotation
						End Site
						{
							OFFSET -4.597651 0.000000 0.000000
						}
					}
				}
			}
		}
	}
	JOINT LeftUpLeg
	{
		OFFSET 3.065109 0.000000 0.000000
		CHANNELS 6 Xposition Yposition Zposition Xrotation Yrotation Zrotation
		JOINT LeftLeg
		{
			OFFSET 0.000000 -12.890781 -0.000008
			CHANNELS 6 Xposition Yposition Zposition Xrotation Yrotation Zrotation
			JOINT LeftFoot
			{
				OFFSET 0.000000 -13.514515 -0.000008
				CHANNELS 6 Xposition Yposition Zposition Xrotation Yrotation Zrotation
				JOINT LeftToeBase
				{
					OFFSET 0.000000 -1.992322 4.597659
					CHANNELS 6 Xposition Yposition Zposition Xrotation Yrotation Zrotation
					End Site
					{
						OFFSET 0.000000 0.000000 1.226043
					}
				}
			}
		}
	}
	JOINT RightUpLeg
	{
		OFFSET -3.065109 0.000000 0.000000
		CHANNELS 6 Xposition Yposition Zposition Xrotation Yrotation Zrotation
		JOINT RightLeg
		{
			OFFSET 0.000000 -12.890781 -0.000008
			CHANNELS 6 Xposition Yposition Zposition Xrotation Yrotation Zrotation
			JOINT RightFoot
			{
				OFFSET 0.000000 -13.514515 -0.000008
				CHANNELS 6 Xposition Yposition Zposition Xrotation Yrotation Zrotation
				JOINT RightToeBase
				{
					OFFSET 0.000000 -1.992322 4.597659
					CHANNELS 6 Xposition Yposition Zposition Xrotation Yrotation Zrotation
					End Site
					{
						OFFSET 0.000000 0.000000 1.226043
					}
				}
			}
		}
	}
}
MOTION
Frames: 5
Frame Time: 0.016667
1.059834 25.161411 -1.454453 11.654261 2.273444 1.015826 -0.000000 9.372198 0.000008 -5.135599 -1.255481 4.276082 -0.000000 7.471852 0.000001 5.725223 2.553924 2.198591 0.000000 4.750913 0.613021 9.974057 2.983659 -4.073304 1.234461 6.033123 -0.162041 -8.889863 0.091770 21.681966 4.404908 -0.000009 0.000000 -10.054058 -8.226881 -9.877624 8.637333 0.000007 -0.000003 -9.688706 -1.930548 2.299312 8.027260 -0.000004 0.000001 -9.487198 3.864002 -7.111125 -1.217433 6.033125 -0.162038 -4.706682 -6.142247 -18.794044 -4.404917 0.000002 0.000000 23.378272 19.346583 -6.300735 -8.637335 -0.000002 -0.000002 61.167179 48.471722 -100.822751 -8.027274 0.000003 0.000003 5.466226 5.579688 -28.662032 3.065109 -0.000000 0.000000 -36.874637 15.441613 25.419720 0.000001 -12.890782 -0.000008 33.494022 5.728831 -10.151991 -0.000003 -13.514520 -0.000007 0.270044 15.106437 -8.323937 -0.000000 -1.992322 4.597658 0.000004 -0.000000 -0.000001 -3.065109 0.000001 0.000000 -29.529708 4.914317 -27.691573 0.000006 -12.890774 -0.000003 41.185371 -11.851282 30.380722 0.000004 -13.514524 -0.000008 -15.783758 -31.505194 -10.820397 0.000000 -1.992322 4.597658 0.000005 0.000008 -0.000001 
1.081452 25.141380 -1.447436 11.577012 2.215097 1.042227 -0.000000 9.372191 0.000008 -5.053605 -1.198246 4.322590 0.000001 7.471849 0.000002 5.755149 2.547186 2.138281 -0.000000 4.750916 0.613024 10.021282 2.970310 -4.091888 1.234462 6.033112 -0.162037 -8.887636 0.114051 21.657094 4.404921 -0.000004 0.000000 -10.052055 -8.206517 -9.922336 8.637336 -0.000004 0.000000 -9.721582 -1.916546 2.306473 8.027273 -0.000002 -0.000003 -9.516952 3.889739 -7.150970 -1.217433 6.033115 -0.162037 -4.672051 -6.145854 -18.779057 -4.404915 -0.000011 0.000000 23.302888 19.356672 -6.159855 -8.637341 0.000002 -0.000003 61.595192 48.448431 -101.336204 -8.027267 0.000008 -0.000003 5.468439 5.563208 -28.517426 3.065109 -0.000002 -0.000000 -36.876902 15.419944 25.579297 0.000001 -12.890776 -0.000004 33.809453 5.680277 -10.413026 -0.000002 -13.514523 -0.000009 -0.094224 15.154277 -8.377803 0.000001 -1.992322 4.597658 0.000003 0.000008 0.000001 -3.065109 -0.000001 0.000000 -29.332329 4.831428 -27.999148 0.000001 -12.890776 -0.000004 41.275257 -12.117830 30.787703 0.000003 -13.514524 -0.000007 -15.686923 -31.569804 -10.345178 -0.000001 -1.992322 4.597656 0.000000 -0.000007 0.000000 
1.104147 25.120117 -1.441046 11.522153 2.136227 1.048012 0.000000 9.372191 0.000007 -4.996645 -1.124428 4.392904 0.000001 7.471840 0.000008 5.802284 2.541996 2.066839 -0.000000 4.750923 0.613030 10.026008 2.957257 -4.070016 1.234462 6.033108 -0.162038 -8.902410 0.100195 21.660507 4.404916 -0.000001 0.000000 -10.022397 -8.163983 -9.987753 8.637336 0.000005 0.000000 -9.767526 -1.887411 2.280617 8.027267 0.000007 0.000001 -9.560750 3.922029 -7.125268 -1.217433 6.033106 -0.162038 -4.668721 -6.120477 -18.746175 -4.404915 -0.000001 -0.000001 23.184857 19.349885 -6.010521 -8.637338 0.000002 -0.000001 62.027673 48.339260 -101.789981 -8.027273 0.000002 0.000000 5.616488 5.508568 -28.471864 3.065109 -0.000000 -0.000000 -36.943318 15.438584 25.748492 -0.000005 -12.890778 -0.000008 34.162677 5.744744 -10.605623 -0.000004 -13.514511 -0.000008 -0.442562 15.037722 -8.433842 -0.000001 -1.992318 4.597661 -0.000006 -0.000006 0.000002 -3.065109 -0.000002 0.000000 -29.177984 4.747882 -28.278289 0.000000 -12.890774 -0.000005 41.360525 -12.356067 31.172276 0.000007 -13.514524 -0.000008 -15.457661 -31.600625 -9.949905 0.000000 -1.992319 4.597657 -0.000001 -0.000012 -0.000002 
1.123896 25.100502 -1.430912 11.471277 2.018507 1.067199 -0.000000 9.372192 0.000008 -4.946922 -1.015861 4.441964 -0.000000 7.471848 0.000008 5.835793 2.524224 2.051386 0.000000 4.750918 0.613024 10.065517 2.937640 -4.119060 1.234461 6.033118 -0.162038 -8.915348 0.114351 21.656756 4.404922 0.000004 -0.000000 -10.123287 -8.153375 -10.043853 8.637334 0.000007 -0.000001 -9.719396 -1.803629 2.262909 8.027261 -0.000002 0.000003 -9.510950 3.880136 -7.194129 -1.217430 6.033114 -0.162038 -4.629460 -6.155518 -18.706942 -4.404913 -0.000000 0.000000 23.037868 19.427643 -5.880447 -8.637340 0.000010 0.000005 62.381101 48.206099 -102.174938 -8.027271 0.000000 0.000002 5.764783 5.425881 -28.436494 3.065109 -0.000003 0.000001 -36.874279 15.274557 25.906409 0.000001 -12.890778 -0.000005 34.459011 5.684425 -10.946665 -0.000004 -13.514519 -0.000008 -0.792415 15.182319 -8.318642 -0.000001 -1.992322 4.597653 0.000004 -0.000001 -0.000002 -3.065106 0.000001 0.000000 -29.002482 4.755453 -28.522901 -0.000005 -12.890772 -0.000004 41.378823 -12.522739 31.507348 0.000007 -13.514517 -0.000007 -15.194840 -31.632020 -9.344846 -0.000000 -1.992322 4.597661 -0.000002 0.000001 0.000001 
1.143264 25.080128 -1.422425 11.428580 1.884388 1.065009 -0.000000 9.372189 0.000002 -4.898050 -0.915563 4.526590 -0.000000 7.471858 0.000007 5.878973 2.522787 2.025129 -0.000000 4.750915 0.613027 10.074826 2.934918 -4.169027 1.234461 6.033118 -0.162038 -8.926399 0.106424 21.636866 4.404915 -0.000005 -0.000000 -10.183637 -8.087956 -10.086697 8.637333 0.000003 0.000000 -9.710901 -1.774535 2.234116 8.027266 0.000004 -0.000005 -9.500598 3.915720 -7.153073 -1.217433 6.033122 -0.162038 -4.601182 -6.160130 -18.664271 -4.404914 -0.000016 -0.000000 22.938659 19.489740 -5.796672 -8.637337 0.000006 -0.000001 62.728198 48.186653 -102.555202 -8.027268 -0.000000 -0.000005 5.826635 5.503901 -28.505670 3.065109 -0.000003 0.000001 -36.870116 15.213770 26.092415 -0.000006 -12.890777 -0.000007 34.729330 5.525825 -11.201625 -0.000004 -13.514520 -0.000007 -1.104813 15.328071 -8.235960 -0.000001 -1.992322 4.597658 -0.000004 -0.000006 -0.000003 -3.065109 0.000003 0.000001 -28.857607 4.742280 -28.693242 0.000002 -12.890772 -0.000005 41.351792 -12.684138 31.703658 0.000004 -13.514523 -0.000008 -14.708317 -31.624145 -8.447465 -0.000000 -1.992322 4.597658 -0.000004 -0.000001 0.000001 
